<svg xmlns="http://www.w3.org/2000/svg" width="38" height="25" viewBox="0 0 38 25"><defs><style>.a{fill:none;}.b{fill:#fff;}.c{clip-path:url(#a);}.d{fill:#f2ae16;}.e{fill:#0f4596;}.f{fill:#0e4596;}</style><clipPath id="a"><rect class="a" width="27.167" height="8.768"/></clipPath></defs><g transform="translate(-1113 -1077)"><rect class="b" width="38" height="25" rx="3" transform="translate(1113 1077)"/><g transform="translate(1117.833 1085)"><g class="c"><path class="d" d="M3.637,2.744l.65.19.33.536.173.869.259,1.306c.014.107.024.214.043.32.075.425.154.85.231,1.275-.039-.081-.079-.162-.116-.244A6.674,6.674,0,0,0,2.363,3.89l-.189-.1L0,2.917l.054-.153.161-.016H.269l3.368,0" transform="translate(0 -2.595)"/><path class="e" d="M43.477,3.974A6.674,6.674,0,0,1,46.321,7.08c.037.082.077.163.116.244l.241,1.131.081.008.611-1.645.777-2.088.413-1.12.22-.589.155-.187.167,0h.052l.654,0h1.085l.278.027-.212.587-.075.193-.057.131a.041.041,0,0,0-.024.045l-.285.717-.459,1.113-.848,2.092-.046.108-.017.052-.458,1.094-.03.1-.489,1.2,0,0-.066.165.006-.008-.051.119,0-.006-.032.057-.2.486-.1.207-.316.031-.875.009H45.461l-.116-.182-.037-.169-.055-.185-.225-.845-.19-.76c-.12-.46-.237-.921-.362-1.379-.014-.053-.067-.1-.1-.143L44.164,6.7l-.248-.975L43.662,4.8l-.046-.168h0l-.14-.661" transform="translate(-41.114 -2.679)"/><path class="e" d="M248.133.018a.021.021,0,0,0,.032.008l1.082.247.071.027.088.04.034.053-.014.1L249.414.6l-.005.054-.045.271L249.2,1.962l-.016.092c-.039.124-.1.133-.219.076a3.579,3.579,0,0,0-1.978-.319,1.509,1.509,0,0,0-.629.216c-.42.263-.419.644-.029.964l.119.085h.007l.618.364,1.035.589.213.164.718,1.03.055,1.086-.34.958-.652.714-.537.338-.376.165-.058.017-.063.029h0l-.6.158-.157.024-.171.025-.156.03-1.3,0-.87-.128-.165-.041L243.6,8.59l-.164-.04-.054-.013L243,8.4c-.042-.084-.12-.168-.119-.252a5.223,5.223,0,0,1,.066-.587l.016-.052.018-.115.174-.954.654.247a2.812,2.812,0,0,0,1.362.286l.107.018.051,0,.324-.013.165-.023.172-.034a.839.839,0,0,0,.794-.616V6.036l-.039-.11a1.3,1.3,0,0,0-.708-.6l-.328-.156L244.9,4.7a.034.034,0,0,0-.039-.025l-.114-.073.008.013-.068-.068-.041-.036-.181-.157h0l-.109-.107h0l-.106-.111h0l-.429-.763-.073-.324a2.634,2.634,0,0,1,.929-2.174L244.9.7l.817-.418.09-.037L245.985.2a6.414,6.414,0,0,1,2-.184h0l.145,0" transform="translate(-229.685 0)"/><path class="e" d="M178.965,2.777h1.144v.507l-.025.11-.014.1-.336,2.068-.178,1.124-.191,1.158-.024.214-.023.112-.035.25-.019.071-.026.166-.013.112-.028.158-.208,1.254-.089.569-.02.079-.01.11-.008.057-.082.291h-1.99c-.128.007-.192-.049-.176-.182l.083-.539.129-.768.055-.324.271-1.684.135-.868.107-.974.072-.11.029-.167.17-1.087.01-.08.029-.136.015-.11.03-.111.091-.654,0-.082,0-.007.093-.491.006-.073c.225-.02.449-.041.674-.058.115-.008.23-.007.345-.01" transform="translate(-167.014 -2.625)"/><path class="f" d="M358.741,2.843h1.085l.377.024.2.832.2.968.461,2.157.222,1.088L361.516,9l.388,1.858.074.312.019.156-2.058,0-.028-.113a.036.036,0,0,0-.014-.046c-.061-.317-.115-.636-.187-.951-.014-.06-.1-.15-.148-.15-.6,0-1.2.009-1.8.017l-.108,0a6.106,6.106,0,0,0-.621-.013.293.293,0,0,0-.211.146c-.118.292-.212.594-.315.892a.292.292,0,0,1-.356.236c-.224-.016-.45.007-.675.013H354.34l-.221-.017-.046-.185a.151.151,0,0,0,.009-.036l.367-.653.159-.385.013-.01,0-.016.037-.081.185-.453.137-.31.066-.163.06-.143.121-.284-.008.008.036-.067.223-.546.065-.15.434-1.042.464-1.089.13-.326.446-1.066.326-.771-.008-.013.006.013.031-.066.343-.488Zm.33,4.349L359,6.822l-.023-.091a.025.025,0,0,0,0-.026L358.7,5.26l-.073-.005-.7,1.949-.218.6-.13.348.019.156,1.576,0c.042-.039.122-.081.119-.117a1.334,1.334,0,0,0-.075-.281l-.045-.216-.016-.107-.04-.167-.051-.229" transform="translate(-334.831 -2.688)"/></g></g></g></svg>