<svg xmlns="http://www.w3.org/2000/svg" width="38.741" height="25.459" viewBox="0 0 38.741 25.459"><defs><style>.a{fill:none;}.b{fill:#fff;}.c{clip-path:url(#a);}.d{fill:#0084c4;}</style><clipPath id="a"><rect class="a" width="25.741" height="12.459"/></clipPath></defs><g transform="translate(-1112.543 -1077)"><rect class="b" width="38.741" height="25.459" rx="3" transform="translate(1112.543 1077)"/><g transform="translate(1118.543 1083)"><g class="c"><path class="d" d="M10.243,6.564h3.043c.215,0,.212,0,.2.207A6.106,6.106,0,0,1,13.152,8.5,5.505,5.505,0,0,1,9.9,11.892a7.483,7.483,0,0,1-2.06.505,9.665,9.665,0,0,1-1.659.045,7.1,7.1,0,0,1-3.924-1.319A5.457,5.457,0,0,1,.2,7.964a7.16,7.16,0,0,1-.2-2.041A6.144,6.144,0,0,1,1.089,2.538,5.739,5.739,0,0,1,4.072.4,8.073,8.073,0,0,1,6.109.022,8.469,8.469,0,0,1,9.7.5a5.539,5.539,0,0,1,3.682,4.39c.055.291.074.589.113.883.009.07-.015.1-.085.1H7.167c-.188,0-.188,0-.188.189,0,.124.007.249,0,.373-.007.108.036.131.136.131.729,0,1.457,0,2.186,0h.944Z" transform="translate(0 0)"/><path class="d" d="M576.357,264.2c1.337,0,2.675-.005,4.012,0a4.062,4.062,0,0,1,1.418.19,2.607,2.607,0,0,1,1.73,2.04,2.674,2.674,0,0,1-.562,2.293,2.418,2.418,0,0,1-1.722.949c-.6.049-1.2.066-1.8.068-2.389.007-4.778,0-7.167,0-.221,0-.221,0-.221-.222q0-2.578,0-5.155c0-.17,0-.171.169-.171h4.136Z" transform="translate(-557.836 -257.631)"/><path class="d" d="M576.581,19.707h-4.26c-.187,0-.187,0-.187-.191q0-2.583,0-5.166c0-.163,0-.163.159-.163q4.1,0,8.209,0a3.721,3.721,0,0,1,1.486.23,2.643,2.643,0,0,1,1.6,1.952,2.755,2.755,0,0,1-1.4,3.007,2.415,2.415,0,0,1-1.07.281c-1.514.03-3.029.044-4.543.063v-.018" transform="translate(-557.918 -13.834)"/></g></g></g></svg>