<svg xmlns="http://www.w3.org/2000/svg" width="38" height="25" viewBox="0 0 38 25"><defs><style>.a{fill:none;}.b{fill:#fff;}.c{clip-path:url(#a);}.d{fill:#ef9e00;}.e{fill:#e00000;}.f{fill:#f45d00;}</style><clipPath id="a"><rect class="a" width="22" height="15" transform="translate(0 0)"/></clipPath></defs><g transform="translate(-1113 -1077)"><rect class="b" width="38" height="25" rx="3" transform="translate(1113 1077)"/><g transform="translate(1121 1082.222)"><g class="c" transform="translate(0 -0.222)"><path class="d" d="M574.3,0a7.251,7.251,0,0,0-3.8,1.067,7.287,7.287,0,0,1,0,12.436A7.286,7.286,0,1,0,574.3,0" transform="translate(-559.417 0.024)"/><path class="e" d="M7.6,7.285a7.281,7.281,0,0,1,3.487-6.218,7.285,7.285,0,1,0,0,12.436A7.281,7.281,0,0,1,7.6,7.285" transform="translate(0 0.024)"/><path class="f" d="M397.974,61.154a7.281,7.281,0,0,0-3.487-6.218,7.287,7.287,0,0,0,0,12.436,7.281,7.281,0,0,0,3.487-6.218" transform="translate(-383.404 -53.844)"/></g></g></g></svg>